wght100_wdth125.ufo
<glyph name="A" format="2">
	<unicode hex="0041"/>
	<advance width="1485"/>
	<outline>
		<contour>
			<point x="-118.7432861328" y="0" type="line"/>
			<point x="-102.8629150391" y="100.001953125" type="line"/>
			<point x="88.1341552734" y="124.001953125" type="line"/>
			<point x="415.7772216797" y="669.3329467773" type="line"/>
			<point x="989.7672729492" y="1535" type="line"/>
			<point x="1161.4069213867" y="1517" type="line"/>
			<point x="1189.4293823242" y="655" type="line"/>
			<point x="1212.5062255859" y="130.001953125" type="line"/>
			<point x="1390.5032958984" y="100.001953125" type="line"/>
			<point x="1374.6229248047" y="0" type="line"/>
			<point x="828.9119873047" y="0" type="line"/>
			<point x="844.7923583984" y="100.001953125" type="line"/>
			<point x="1039.7894287109" y="134.001953125" type="line"/>
			<point x="1035.2865600586" y="648" type="line"/>
			<point x="891" y="1166" type="line"/>
			<point x="886" y="1287" type="line"/>
			<point x="876" y="1287" type="line"/>
			<point x="799" y="1167" type="line"/>
			<point x="509.985534668" y="620.0002441406" type="line"/>
			<point x="245.1315307617" y="131.001953125" type="line"/>
			<point x="448.1286010742" y="100.001953125" type="line"/>
			<point x="433.2482299805" y="0" type="line"/>
		</contour>
		<contour>
			<point x="421.0065917969" y="579.6676635742" type="line"/>
			<point x="483.2185058594" y="681.9990234375" type="line"/>
			<point x="987.6047363281" y="657.9982910156" type="line"/>
			<point x="946.60546875" y="551.6683349609" type="line"/>
		</contour>
		<contour>
			<point x="987.6047363281" y="657.9982910156" type="line"/>
			<point x="1131.9713745117" y="682.9990844727" type="line"/>
			<point x="1122.7680053711" y="573.6675415039" type="line"/>
			<point x="946.60546875" y="551.6683349609" type="line"/>
		</contour>
	</outline>
	<anchor name="bottom" x="523" y="0"/>
	<anchor name="ogonek" x="1098" y="0"/>
	<anchor name="top" x="954" y="1500"/>
	<anchor name="tonos" x="613" y="1500"/>
</glyph>
<glyph name="E" format="2">
	<unicode hex="0045"/>
	<advance width="1074"/>
	<outline>
		<contour>
			<point x="-80.8187866211" y="0" type="line"/>
			<point x="-60.9384155273" y="99.001953125" type="line"/>
			<point x="127.0586547852" y="130.001953125" type="line"/>
			<point x="267.1782836914" y="803" type="line"/>
			<point x="368.4180297852" y="1367.7177734375" type="line"/>
			<point x="180.4209594727" y="1393.7177734375" type="line"/>
			<point x="189.1812133789" y="1500" type="line"/>
			<point x="1128.9258422852" y="1500" type="line"/>
			<point x="1100.4796142578" y="1150.5595092773" type="line"/>
			<point x="1004.5822753906" y="1150.5595092773" type="line"/>
			<point x="977.3238525391" y="1400.0022583008" type="line"/>
			<point x="566.6157226562" y="1400.0022583008" type="line"/>
			<point x="531.6157226562" y="1380.0022583008" type="line"/>
			<point x="425.6152954102" y="792" type="line"/>
			<point x="293.2815551758" y="110.6646118164" type="line"/>
			<point x="304.2815551758" y="101.6646118164" type="line"/>
			<point x="768.9229736328" y="101.6646118164" type="line"/>
			<point x="909.2822265625" y="389.4887084961" type="line"/>
			<point x="1006.3259887695" y="389.4887084961" type="line"/>
			<point x="907.2591552734" y="0" type="line"/>
		</contour>
		<contour>
			<point x="343" y="776" type="line"/>
			<point x="361" y="858" type="line"/>
			<point x="746.3233642578" y="836.9990844727" type="line"/>
			<point x="829.3108520508" y="1030.4399414062" type="line"/>
			<point x="929.9465942383" y="1030.4399414062" type="line"/>
			<point x="830.7059326172" y="506.0579223633" type="line"/>
			<point x="736.9859008789" y="506.0579223633" type="line"/>
			<point x="729.6573486328" y="724.6678466797" type="line"/>
		</contour>
	</outline>
	<anchor name="bottom" x="518" y="0"/>
	<anchor name="ogonek" x="827" y="0"/>
	<anchor name="top" x="789" y="1500"/>
	<anchor name="tonos" x="81" y="1500"/>
</glyph>
<glyph name="F" format="2">
	<unicode hex="0046"/>
	<advance width="996"/>
	<outline>
		<contour>
			<point x="-88.6978149414" y="0" type="line"/>
			<point x="-68.8174438477" y="100.001953125" type="line"/>
			<point x="122.6996459961" y="130.001953125" type="line"/>
			<point x="257.2992553711" y="806" type="line"/>
			<point x="358.8588256836" y="1367.7177734375" type="line"/>
			<point x="161.5419311523" y="1393.7177734375" type="line"/>
			<point x="170.3021850586" y="1500" type="line"/>
			<point x="1131.1268920898" y="1500" type="line"/>
			<point x="1097.0135498047" y="1176.7119140625" type="line"/>
			<point x="995.3081665039" y="1176.7119140625" type="line"/>
			<point x="970.7917480469" y="1388.3353881836" type="line"/>
			<point x="539.8833007812" y="1394.3353881836" type="line"/>
			<point x="529.8833007812" y="1378.3353881836" type="line"/>
			<point x="419.2162475586" y="793" type="line"/>
			<point x="289.6166381836" y="130.001953125" type="line"/>
			<point x="489.0936889648" y="100.001953125" type="line"/>
			<point x="471.2133178711" y="0" type="line"/>
		</contour>
		<contour>
			<point x="333.7379150391" y="725.6676025391" type="line"/>
			<point x="358.2575683594" y="823.3323364258" type="line"/>
			<point x="787.7908935547" y="830.3322143555" type="line"/>
			<point x="854.619140625" y="996.6099243164" type="line"/>
			<point x="955.7474365234" y="996.6099243164" type="line"/>
			<point x="864.9991455078" y="527.0231323242" type="line"/>
			<point x="767.8708496094" y="527.0231323242" type="line"/>
			<point x="768.4580078125" y="715.0010986328" type="line"/>
		</contour>
	</outline>
	<anchor name="bottom" x="578" y="0"/>
	<anchor name="top" x="622" y="1500"/>
</glyph>
<glyph name="G" format="2">
	<unicode hex="0047"/>
	<advance width="1606"/>
	<outline>
		<contour>
			<point x="113.9757933422" y="840" type="qcurve" smooth="yes"/>
			<point x="197.9757933422" y="1155"/>
			<point x="641.3247367124" y="1535.0766601562"/>
			<point x="846.8515921811" y="1527" type="qcurve" smooth="yes"/>
			<point x="954.6186820249" y="1523"/>
			<point x="1182.4665824155" y="1473.9999389648"/>
			<point x="1253.5957328061" y="1436" type="qcurve" smooth="yes"/>
			<point x="1259.9481497983" y="1427" type="line"/>
			<point x="1267.4806205014" y="1420" type="line"/>
			<point x="1202.1838065366" y="1069.9097900391" type="line"/>
			<point x="1096.3481131772" y="1069.9097900391" type="line"/>
			<point x="1086.0787650327" y="1286.4711914062" type="line"/>
			<point x="1059.9783011655" y="1341.4705810547"/>
			<point x="943.8243705014" y="1403.1358642578"/>
			<point x="885.5946952085" y="1410.6693115234" type="qcurve" smooth="yes"/>
			<point x="690.5141898374" y="1434.532043457"/>
			<point x="362.852258186" y="1131"/>
			<point x="284.4123167797" y="820" type="qcurve" smooth="yes"/>
			<point x="206.1877074047" y="509.3333129883"/>
			<point x="451.4884330014" y="146.3305664062"/>
			<point x="594.7408744077" y="107.6640014648" type="qcurve" smooth="yes"/>
			<point x="680.8167411069" y="83.6640625"/>
			<point x="917.9671317319" y="135.3311157227"/>
			<point x="1001.367949603" y="208.9971923828" type="qcurve"/>
			<point x="1090.3014212827" y="558.9580078125" type="line"/>
			<point x="886.4645072202" y="588.4780273438" type="line"/>
			<point x="899.7047415952" y="690" type="line"/>
			<point x="1433.0958548764" y="690" type="line"/>
			<point x="1415.8155814389" y="586.9580078125" type="line"/>
			<point x="1263.6983939389" y="557.9580078125" type="line"/>
			<point x="1162.7384330014" y="171.318359375" type="line"/>
			<point x="1093.4754325132" y="115.1591796875" type="line"/>
			<point x="1012.9861136655" y="41.2398071289"/>
			<point x="714.3169242124" y="-44"/>
			<point x="556.7973929624" y="-16" type="qcurve" smooth="yes"/>
			<point x="326.0044242124" y="25"/>
			<point x="19.9757933422" y="489"/>
		</contour>
	</outline>
	<anchor name="bottom" x="667" y="0"/>
	<anchor name="top" x="907" y="1492"/>
</glyph>
<glyph name="H" format="2">
	<unicode hex="0048"/>
	<advance width="1571"/>
	<outline>
		<contour>
			<point x="-67.4244384766" y="0" type="line"/>
			<point x="-47.5440673828" y="99.001953125" type="line"/>
			<point x="141.4530029297" y="130.001953125" type="line"/>
			<point x="279.5726318359" y="806" type="line"/>
			<point x="379.0921630859" y="1361.9975585938" type="line"/>
			<point x="186.3353271484" y="1393.1977539062" type="line"/>
			<point x="194.5755615234" y="1500" type="line"/>
			<point x="755.0467529297" y="1500" type="line"/>
			<point x="734.6063232422" y="1393.1977539062" type="line"/>
			<point x="547.5692138672" y="1361.9975585938" type="line"/>
			<point x="438.0496826172" y="790" type="line"/>
			<point x="309.9300537109" y="130.001953125" type="line"/>
			<point x="500.7269287109" y="99.001953125" type="line"/>
			<point x="494.0467529297" y="0" type="line"/>
		</contour>
		<contour>
			<point x="359.0513305664" y="722.6676025391" type="line"/>
			<point x="383.5709228516" y="838.33203125" type="line"/>
			<point x="806.9251098633" y="832.9987792969" type="line"/>
			<point x="1239.5318603516" y="838.33203125" type="line"/>
			<point x="1214.5322875977" y="722.6676025391" type="line"/>
			<point x="784.5921630859" y="728.0008544922" type="line"/>
		</contour>
		<contour>
			<point x="815.0565185547" y="0" type="line"/>
			<point x="832.9368896484" y="99.001953125" type="line"/>
			<point x="1030.9339599609" y="130.001953125" type="line"/>
			<point x="1161.0535888672" y="788" type="line"/>
			<point x="1260.5731201172" y="1361.9975585938" type="line"/>
			<point x="1092.8162841797" y="1393.1977539062" type="line"/>
			<point x="1101.0565185547" y="1500" type="line"/>
			<point x="1648.5277099609" y="1500" type="line"/>
			<point x="1630.0872802734" y="1393.1977539062" type="line"/>
			<point x="1431.0501708984" y="1361.9975585938" type="line"/>
			<point x="1320.4906005859" y="771" type="line"/>
			<point x="1197.3709716797" y="130.001953125" type="line"/>
			<point x="1397.1678466797" y="99.001953125" type="line"/>
			<point x="1390.4876708984" y="0" type="line"/>
		</contour>
	</outline>
	<anchor name="bottom" x="607" y="0"/>
	<anchor name="center" x="820" y="1079"/>
	<anchor name="top" x="950" y="1500"/>
	<anchor name="tonos" x="81" y="1500"/>
	<anchor name="cy_descender" x="1399" y="100"/>
</glyph>
<glyph name="I" format="2">
	<unicode hex="0049"/>
	<advance width="705"/>
	<outline>
		<contour>
			<point x="-68.2123413086" y="0" type="line"/>
			<point x="-50.3319702148" y="100.0419921875" type="line"/>
			<point x="149.6651000977" y="131.0419921875" type="line"/>
			<point x="285.2647094727" y="808" type="line"/>
			<point x="382.3442993164" y="1366.7177734375" type="line"/>
			<point x="184.0274047852" y="1393.7177734375" type="line"/>
			<point x="194.7876586914" y="1500" type="line"/>
			<point x="781.1787719727" y="1500" type="line"/>
			<point x="761.2183227539" y="1392.7177734375" type="line"/>
			<point x="557.2212524414" y="1366.7177734375" type="line"/>
			<point x="444.1817016602" y="802" type="line"/>
			<point x="317.0620727539" y="129.0419921875" type="line"/>
			<point x="514.0591430664" y="100.0419921875" type="line"/>
			<point x="500.1787719727" y="0" type="line"/>
		</contour>
	</outline>
	<anchor name="bottom" x="220" y="0"/>
	<anchor name="ogonek" x="356" y="0"/>
	<anchor name="top" x="503" y="1500"/>
	<anchor name="tonos" x="81" y="1500"/>
	<anchor name="yu_dash" x="365" y="795"/>
	<anchor name="liga" x="712" y="0"/>
</glyph>
<glyph name="J" format="2">
	<unicode hex="004A"/>
	<advance width="666"/>
	<outline>
		<contour>
			<point x="-185" y="-225" type="qcurve"/>
			<point x="-151" y="-103" type="line"/>
			<point x="-131" y="-110"/>
			<point x="-56" y="-128"/>
			<point x="2" y="-128" type="qcurve" smooth="yes"/>
			<point x="80" y="-128"/>
			<point x="170" y="-1"/>
			<point x="192" y="112" type="qcurve" smooth="yes"/>
			<point x="253.6339111328" y="754" type="line"/>
			<point x="359.1934814453" y="1367.7177734375" type="line"/>
			<point x="168.1964111328" y="1393.7177734375" type="line"/>
			<point x="176.9566650391" y="1500" type="line"/>
			<point x="741.8677978516" y="1500" type="line"/>
			<point x="728.1075439453" y="1393.7177734375" type="line"/>
			<point x="528.1104736328" y="1367.7177734375" type="line"/>
			<point x="415.5509033203" y="754" type="line"/>
			<point x="370" y="204" type="line" smooth="yes"/>
			<point x="322" y="-38"/>
			<point x="152" y="-260"/>
			<point x="28" y="-260" type="qcurve" smooth="yes"/>
			<point x="-44" y="-260"/>
			<point x="-165" y="-237"/>
		</contour>
	</outline>
	<anchor name="bottom" x="376" y="-208"/>
	<anchor name="top" x="533" y="1500"/>
	<anchor name="_liga" x="0" y="0"/>
</glyph>
<glyph name="K" format="2">
	<unicode hex="004B"/>
	<advance width="1133"/>
	<outline>
		<contour>
			<point x="-62.2242431641" y="0" type="line"/>
			<point x="-37.5440673828" y="100.001953125" type="line"/>
			<point x="142.4530029297" y="128.001953125" type="line"/>
			<point x="275.7728271484" y="762" type="line"/>
			<point x="392.0125732422" y="1367.7177734375" type="line"/>
			<point x="192.0155029297" y="1392.7177734375" type="line"/>
			<point x="199.7757568359" y="1500" type="line"/>
			<point x="775.5267333984" y="1500" type="line"/>
			<point x="755.7664794922" y="1392.7177734375" type="line"/>
			<point x="561.7694091797" y="1367.7177734375" type="line"/>
			<point x="432.6497802734" y="748" type="line"/>
			<point x="311" y="124" type="line"/>
			<point x="516.6868896484" y="100.001953125" type="line"/>
			<point x="507.0067138672" y="0" type="line"/>
		</contour>
		<contour>
			<point x="303" y="540" type="line"/>
			<point x="331" y="693" type="line"/>
			<point x="919.0868530273" y="1370.7177734375" type="line"/>
			<point x="750.0897827148" y="1390.7177734375" type="line"/>
			<point x="760.8500366211" y="1500" type="line"/>
			<point x="1273.8412475586" y="1500" type="line"/>
			<point x="1263.0809936523" y="1389.7177734375" type="line"/>
			<point x="1090.0839233398" y="1371.7177734375" type="line"/>
		</contour>
		<contour>
			<point x="589" y="874" type="line"/>
			<point x="717" y="993" type="line"/>
			<point x="954.9340820312" y="123.001953125" type="line"/>
			<point x="1132.9311523438" y="103.001953125" type="line"/>
			<point x="1123.2509765625" y="0" type="line"/>
			<point x="558.5400390625" y="0" type="line"/>
			<point x="568.2202148438" y="103.001953125" type="line"/>
			<point x="875" y="124" type="line"/>
		</contour>
	</outline>
	<anchor name="bottom" x="607" y="0"/>
	<anchor name="top" x="896" y="1500"/>
	<anchor name="kai_tail" x="1201" y="100"/>
</glyph>
<glyph name="L" format="2">
	<unicode hex="004C"/>
	<advance width="998"/>
	<outline>
		<contour>
			<point x="-81.5155639648" y="0" type="line"/>
			<point x="-57.3153686523" y="100.001953125" type="line"/>
			<point x="122.6817016602" y="128.001953125" type="line"/>
			<point x="273.0415649414" y="806" type="line"/>
			<point x="373.2412719727" y="1377.2377929688" type="line"/>
			<point x="180.2442016602" y="1393.2377929688" type="line"/>
			<point x="188.4844360352" y="1500" type="line"/>
			<point x="735.8755493164" y="1500" type="line"/>
			<point x="711.6353149414" y="1393.2377929688" type="line"/>
			<point x="547.6382446289" y="1377.2377929688" type="line"/>
			<point x="427.4385375977" y="754" type="line"/>
			<point x="300.8645629883" y="128.6646118164" type="line"/>
			<point x="324.8645629883" y="101.6646118164" type="line"/>
			<point x="795.5560302734" y="101.6646118164" type="line"/>
			<point x="970.8403320312" y="402.3609619141" type="line"/>
			<point x="1070.5811767578" y="402.3609619141" type="line"/>
			<point x="916.6264038086" y="0" type="line"/>
		</contour>
	</outline>
	<anchor name="bottom" x="535" y="0"/>
	<anchor name="centerright" x="755" y="750"/>
	<anchor name="top" x="878" y="1500"/>
	<anchor name="topright" x="804" y="1001"/>
	<anchor name="center" x="397" y="750"/>
	<anchor name="liga" x="1104" y="0"/>
</glyph>
<glyph name="M" format="2">
	<unicode hex="004D"/>
	<advance width="1860"/>
	<outline>
		<contour>
			<point x="-105.6978149414" y="0" type="line"/>
			<point x="-96.0176391602" y="100.001953125" type="line"/>
			<point x="111.9794311523" y="135.001953125" type="line"/>
			<point x="244.071472168" y="753" type="line"/>
			<point x="368.5390014648" y="1357.7177734375" type="line"/>
			<point x="160.5419311523" y="1393.7177734375" type="line"/>
			<point x="172.3021850586" y="1500" type="line"/>
			<point x="668.1131591797" y="1500" type="line"/>
			<point x="728.6043701172" y="803.168762207" type="line"/>
			<point x="815" y="327" type="line"/>
			<point x="831" y="213" type="line"/>
			<point x="841" y="213" type="line"/>
			<point x="900" y="327" type="line"/>
			<point x="1177.8726806641" y="879.9834594727" type="line"/>
			<point x="1500.8032836914" y="1500" type="line"/>
			<point x="1943.4799804688" y="1500" type="line"/>
			<point x="1924.5595703125" y="1392.7177734375" type="line"/>
			<point x="1730.5625" y="1357.7177734375" type="line"/>
			<point x="1615.9228515625" y="771" type="line"/>
			<point x="1486.7231445312" y="135.001953125" type="line"/>
			<point x="1692.7202148438" y="100.001953125" type="line"/>
			<point x="1684.0400390625" y="0" type="line"/>
			<point x="1095.6489257812" y="0" type="line"/>
			<point x="1114.3291015625" y="100.001953125" type="line"/>
			<point x="1314.326171875" y="135.001953125" type="line"/>
			<point x="1458.9658203125" y="787" type="line"/>
			<point x="1580" y="1244" type="line"/>
			<point x="1606" y="1363" type="line"/>
			<point x="1597" y="1365" type="line"/>
			<point x="1539" y="1258" type="line"/>
			<point x="1261.9196166992" y="816.9420166016" type="line"/>
			<point x="807.1807250977" y="-7" type="line"/>
			<point x="655.8493652344" y="-7" type="line"/>
			<point x="563.5576782227" y="804.2991333008" type="line"/>
			<point x="499" y="1249" type="line"/>
			<point x="485" y="1357" type="line"/>
			<point x="474" y="1355" type="line"/>
			<point x="456" y="1235" type="line"/>
			<point x="352.9638061523" y="753" type="line"/>
			<point x="234.1774902344" y="135.001953125" type="line"/>
			<point x="466.1745605469" y="100.001953125" type="line"/>
			<point x="460.2941894531" y="0" type="line"/>
		</contour>
	</outline>
	<anchor name="bottom" x="768" y="0"/>
	<anchor name="top" x="1048" y="1500"/>
</glyph>
<glyph name="O" format="2">
	<unicode hex="004F"/>
	<advance width="1542"/>
	<outline>
		<contour>
			<point x="105.9738769531" y="884" type="qcurve" smooth="yes"/>
			<point x="171.9738769531" y="1225"/>
			<point x="681.4748535156" y="1565.3930664062"/>
			<point x="959.3386230469" y="1512.1533203125" type="qcurve" smooth="yes"/>
			<point x="1244.0886230469" y="1455.6088867188"/>
			<point x="1485.9592285156" y="990.4799804688"/>
			<point x="1411.6198730469" y="652" type="qcurve" smooth="yes"/>
			<point x="1329.7111816406" y="286"/>
			<point x="860.2941894531" y="-51.7778320312"/>
			<point x="548.7805175781" y="-11.1533203125" type="qcurve" smooth="yes"/>
			<point x="279.3454589844" y="26.9018554688"/>
			<point x="31.9738769531" y="506"/>
		</contour>
		<contour>
			<point x="277.4504394531" y="859" type="qcurve" smooth="yes"/>
			<point x="212.7331542969" y="544.5402832031"/>
			<point x="345.7065429688" y="133.8442993164"/>
			<point x="562.4467163086" y="99.8442993164" type="qcurve" smooth="yes"/>
			<point x="788.6060180664" y="63.8442993164"/>
			<point x="1171.5098876953" y="358.0144042969"/>
			<point x="1236.2233886719" y="662" type="qcurve" smooth="yes"/>
			<point x="1293.9656982422" y="935.849609375"/>
			<point x="1139.0388183594" y="1349.8223876953"/>
			<point x="913.0083618164" y="1397.8223876953" type="qcurve" smooth="yes"/>
			<point x="693.0101928711" y="1445.8223876953"/>
			<point x="338.7562866211" y="1168.0024414062"/>
		</contour>
	</outline>
	<anchor name="bottom" x="612" y="0"/>
	<anchor name="center" x="765" y="756"/>
	<anchor name="ogonek" x="844" y="0"/>
	<anchor name="top" x="906" y="1500"/>
	<anchor name="topright" x="1044" y="1500"/>
	<anchor name="tonos" x="230" y="1500"/>
	<anchor name="_yu_dash" x="174" y="795"/>
</glyph>
<glyph name="P" format="2">
	<unicode hex="0050"/>
	<advance width="1157"/>
	<outline>
		<contour>
			<point x="-83.4688720703" y="0" type="line"/>
			<point x="-73.7886962891" y="100.001953125" type="line"/>
			<point x="111.2083740234" y="126.001953125" type="line"/>
			<point x="256" y="754" type="line"/>
			<point x="362.7679443359" y="1366.7177734375" type="line"/>
			<point x="164.7708740234" y="1393.7177734375" type="line"/>
			<point x="173.5311279297" y="1500" type="line"/>
			<point x="749.0115966797" y="1500" type="line" smooth="yes"/>
			<point x="998.4075927734" y="1500"/>
			<point x="1201.5335693359" y="1246"/>
			<point x="1166.7239990234" y="1039" type="qcurve" smooth="yes"/>
			<point x="1133.9144287109" y="845"/>
			<point x="815.5697631836" y="606.3352661133"/>
			<point x="633.9589233398" y="606.3352661133" type="qcurve" smooth="yes"/>
			<point x="535.2767944336" y="606.3352661133"/>
			<point x="355.9543457031" y="643.5084228516"/>
			<point x="317" y="628" type="qcurve"/>
			<point x="337" y="733" type="line"/>
			<point x="361.6697998047" y="734.8798828125"/>
			<point x="477.6673583984" y="707"/>
			<point x="597.2459716797" y="707" type="qcurve" smooth="yes"/>
			<point x="758.2904052734" y="707"/>
			<point x="967.1273193359" y="872"/>
			<point x="999.1273193359" y="1049" type="qcurve" smooth="yes"/>
			<point x="1028.1273193359" y="1212"/>
			<point x="902.6419067383" y="1403.6688842773"/>
			<point x="696.4749145508" y="1403.6688842773" type="qcurve" smooth="yes"/>
			<point x="556.4456176758" y="1403.6688842773" type="line"/>
			<point x="530.1123046875" y="1381.6688842773" type="line"/>
			<point x="419" y="764" type="line"/>
			<point x="283.1253662109" y="129.001953125" type="line"/>
			<point x="497.1224365234" y="97.001953125" type="line"/>
			<point x="486.4422607422" y="0" type="line"/>
		</contour>
	</outline>
	<anchor name="bottom" x="634" y="0"/>
	<anchor name="top" x="634" y="1500"/>
</glyph>
<glyph name="Q" format="2">
	<unicode hex="0051"/>
	<advance width="1543"/>
	<outline>
		<contour>
			<point x="104.2048339844" y="884" type="qcurve" smooth="yes"/>
			<point x="171.2048339844" y="1226"/>
			<point x="683.0598144531" y="1573.2397460938"/>
			<point x="960.9235839844" y="1520" type="qcurve" smooth="yes"/>
			<point x="1245.6735839844" y="1463.4555664062"/>
			<point x="1487.4548339844" y="991"/>
			<point x="1410.8508300781" y="652" type="qcurve" smooth="yes"/>
			<point x="1328.4621582031" y="285"/>
			<point x="825.4631347656" y="-52.7294921875"/>
			<point x="550.1125488281" y="-19" type="qcurve" smooth="yes"/>
			<point x="302.6164550781" y="14.5600585938"/>
			<point x="31.2048339844" y="507"/>
		</contour>
		<contour>
			<point x="278.6813964844" y="868" type="qcurve" smooth="yes"/>
			<point x="212.5454101562" y="544.5402832031"/>
			<point x="344.8086547852" y="120.9978637695"/>
			<point x="562.2262573242" y="86.9978637695" type="qcurve" smooth="yes"/>
			<point x="788.385559082" y="50.9978637695"/>
			<point x="1168.8948974609" y="357.1160888672"/>
			<point x="1235.4543457031" y="663" type="qcurve" smooth="yes"/>
			<point x="1295.0426025391" y="935.6462402344"/>
			<point x="1140.6237792969" y="1357.6690673828"/>
			<point x="903.5933227539" y="1407.6690673828" type="qcurve" smooth="yes"/>
			<point x="694.5951538086" y="1453.6690673828"/>
			<point x="337.4059448242" y="1168.0024414062"/>
		</contour>
		<contour>
			<point x="382" y="-3" type="qcurve"/>
			<point x="833.1032714844" y="-286.9453125" type="line" smooth="yes"/>
			<point x="907.6530151367" y="-286.430480957"/>
			<point x="1067.4721069336" y="-180.763671875"/>
			<point x="1127.6189575195" y="-112.1898193359" type="qcurve"/>
			<point x="1198.9509277344" y="-162.5219726562" type="line"/>
			<point x="1128.9509277344" y="-262.5219726562"/>
			<point x="935.9436035156" y="-431.9829101562"/>
			<point x="780.3840332031" y="-438.22265625" type="qcurve"/>
			<point x="468.2756347656" y="-176.0043945312" type="line"/>
			<point x="365.8084106445" y="-186.9501953125"/>
			<point x="265.6049194336" y="-219.5588378906"/>
			<point x="169.2322387695" y="-287.9986572266" type="qcurve"/>
			<point x="120.2331542969" y="-232" type="line"/>
			<point x="192.6330566406" y="-163.5200195312"/>
			<point x="296" y="5"/>
		</contour>
		<contour>
			<point x="320" y="-53" type="line"/>
			<point x="426" y="75"/>
			<point x="498.0667724609" y="136.6660766602"/>
			<point x="562.0665893555" y="188.3326416016" type="qcurve" smooth="yes"/>
			<point x="570.4000854492" y="193.9995117188"/>
			<point x="654" y="332"/>
			<point x="592.4000854492" y="210.9995727539" type="qcurve"/>
			<point x="621.7329101562" y="200.6664428711"/>
			<point x="683.3987426758" y="175.0004272461"/>
			<point x="698.3984985352" y="161.6673583984" type="qcurve"/>
			<point x="688.0651855469" y="151.3341064453"/>
			<point x="673.7318115234" y="140.0007324219"/>
			<point x="663.7316894531" y="133.6672363281" type="qcurve" smooth="yes"/>
			<point x="611.0651855469" y="98.3338012695"/>
			<point x="506" y="28"/>
			<point x="401" y="-88" type="qcurve"/>
		</contour>
	</outline>
	<anchor name="bottom" x="832" y="0"/>
	<anchor name="top" x="832" y="1500"/>
</glyph>
<glyph name="S" format="2">
	<unicode hex="0053"/>
	<advance width="944"/>
	<outline>
		<contour>
			<point x="-72.5530395508" y="-15.9378051758" type="line"/>
			<point x="2.8365478516" y="428.2987060547" type="line"/>
			<point x="94.0865478516" y="426.2987060547" type="line"/>
			<point x="96.6858520508" y="339.6646728516" type="line" smooth="yes"/>
			<point x="97.4187011719" y="228.6646728516"/>
			<point x="259.055847168" y="81.9975585938"/>
			<point x="398.8631591797" y="81.9975585938" type="qcurve" smooth="yes"/>
			<point x="532.9575805664" y="81.9975585938"/>
			<point x="747.3715209961" y="239.6654663086"/>
			<point x="753.3715209961" y="384.9989624023" type="qcurve" smooth="yes"/>
			<point x="758.3715209961" y="518.998840332"/>
			<point x="564.9572143555" y="643.684753418"/>
			<point x="470.6715698242" y="734.8702392578" type="qcurve" smooth="yes"/>
			<point x="357.9937744141" y="821.8580322266"/>
			<point x="165.8427124023" y="1010.3350830078"/>
			<point x="173.8427124023" y="1200" type="qcurve" smooth="yes"/>
			<point x="181.8427124023" y="1353"/>
			<point x="409.5390625" y="1542"/>
			<point x="563.0910644531" y="1542" type="qcurve" smooth="yes"/>
			<point x="678.1037597656" y="1542"/>
			<point x="816.3608398438" y="1475.4802856445"/>
			<point x="848.1668701172" y="1440.8670654297" type="qcurve"/>
			<point x="926.7088012695" y="1554.0166625977" type="line"/>
			<point x="996.6677856445" y="1538.4079589844" type="line"/>
			<point x="934.1091308594" y="1098.7138061523" type="line"/>
			<point x="839.9660644531" y="1098.7138061523" type="line"/>
			<point x="822.0333251953" y="1256.1357421875" type="line"/>
			<point x="830.8342285156" y="1314.1353759766"/>
			<point x="672.9814453125" y="1439.6690063477"/>
			<point x="589.7661743164" y="1439.6690063477" type="qcurve" smooth="yes"/>
			<point x="481.8573608398" y="1439.6690063477"/>
			<point x="328.3862915039" y="1320.001159668"/>
			<point x="322.3862915039" y="1217.6403198242" type="qcurve" smooth="yes"/>
			<point x="316.3862915039" y="1086.4942016602"/>
			<point x="485.0100708008" y="949.6982421875"/>
			<point x="680.856262207" y="816.8549804688" type="qcurve" smooth="yes"/>
			<point x="698.9860839844" y="746.7767944336"/>
			<point x="911.1953735352" y="567.1987304688"/>
			<point x="902.1953735352" y="385.8393554688" type="qcurve" smooth="yes"/>
			<point x="893.6753540039" y="192.2797851562"/>
			<point x="608.5338134766" y="-26"/>
			<point x="443.4786376953" y="-26" type="qcurve" smooth="yes"/>
			<point x="305.1750488281" y="-26"/>
			<point x="119.5482177734" y="49.1995849609"/>
			<point x="81.4859619141" y="108.3989257812" type="qcurve"/>
			<point x="-3.1012573242" y="-32.6310424805" type="line"/>
		</contour>
	</outline>
	<anchor name="bottom" x="399" y="0"/>
	<anchor name="top" x="679" y="1500"/>
</glyph>
<glyph name="T" format="2">
	<unicode hex="0054"/>
	<advance width="1096"/>
	<outline>
		<contour>
			<point x="47.4398193359" y="1113.0792236328" type="line"/>
			<point x="133.4268798828" y="1500" type="line"/>
			<point x="1233.0240478516" y="1500" type="line"/>
			<point x="1147.0369873047" y="1113.0792236328" type="line"/>
			<point x="1048.0345458984" y="1113.0792236328" type="line"/>
			<point x="1075.0237426758" y="1398.0022583008" type="line"/>
			<point x="760.4795532227" y="1398.0022583008" type="line"/>
			<point x="746.4795532227" y="1378.0022583008" type="line"/>
			<point x="629.9190673828" y="754" type="line"/>
			<point x="511.3194580078" y="125.001953125" type="line"/>
			<point x="700.0762939453" y="99.001953125" type="line"/>
			<point x="691.9161376953" y="0" type="line"/>
			<point x="132.0850830078" y="0" type="line"/>
			<point x="147.2452392578" y="99.001953125" type="line"/>
			<point x="337.4825439453" y="125.001953125" type="line"/>
			<point x="463.5220947266" y="754" type="line"/>
			<point x="574.0825805664" y="1378.0022583008" type="line"/>
			<point x="570.0825805664" y="1398.0022583008" type="line"/>
			<point x="246.4280395508" y="1398.0022583008" type="line"/>
			<point x="146.4422607422" y="1113.0792236328" type="line"/>
		</contour>
	</outline>
	<anchor name="bottom" x="451" y="0"/>
	<anchor name="center" x="584" y="750"/>
	<anchor name="top" x="732" y="1500"/>
	<anchor name="cy_descender" x="755" y="100"/>
</glyph>
<glyph name="U" format="2">
	<unicode hex="0055"/>
	<advance width="1489"/>
	<outline>
		<contour>
			<point x="192.9860229492" y="1393.7177734375" type="line"/>
			<point x="205.2662963867" y="1500" type="line"/>
			<point x="767.9772338867" y="1500" type="line"/>
			<point x="753.6969604492" y="1393.7177734375" type="line"/>
			<point x="556.6998901367" y="1364.7177734375" type="line"/>
			<point x="429.1803588867" y="753" type="line" smooth="yes"/>
			<point x="414.700378418" y="686.4799804688"/>
			<point x="403.1803588867" y="597"/>
			<point x="403.1803588867" y="484" type="qcurve" smooth="yes"/>
			<point x="404.1803588867" y="309.4389648438"/>
			<point x="574.0689086914" y="96.8240356445"/>
			<point x="677.5488891602" y="96.8240356445" type="qcurve" smooth="yes"/>
			<point x="862.2266235352" y="96.8240356445"/>
			<point x="1083.5292358398" y="315.3320922852"/>
			<point x="1129.5294799805" y="562" type="qcurve" smooth="yes"/>
			<point x="1174.5294799805" y="800" type="line"/>
			<point x="1281.249206543" y="1359.7177734375" type="line"/>
			<point x="1040.2521362305" y="1393.7177734375" type="line"/>
			<point x="1051.532409668" y="1500" type="line"/>
			<point x="1619.5240478516" y="1500" type="line"/>
			<point x="1608.2437744141" y="1393.7177734375" type="line"/>
			<point x="1404.2467041016" y="1359.7177734375" type="line"/>
			<point x="1287.1937866211" y="791" type="line"/>
			<point x="1244.8604125977" y="556" type="line" smooth="yes"/>
			<point x="1189.5270385742" y="248"/>
			<point x="889.6795654297" y="-25"/>
			<point x="639.0568237305" y="-25" type="qcurve" smooth="yes"/>
			<point x="427.8361206055" y="-25"/>
			<point x="239.4635620117" y="251"/>
			<point x="239.4635620117" y="474" type="qcurve" smooth="yes"/>
			<point x="239.4635620117" y="590"/>
			<point x="258.2633666992" y="683.5200195312"/>
			<point x="272.2633666992" y="752" type="qcurve" smooth="yes"/>
			<point x="399.9830932617" y="1364.7177734375" type="line"/>
		</contour>
	</outline>
	<anchor name="bottom" x="588" y="0"/>
	<anchor name="ogonek" x="810" y="0"/>
	<anchor name="top" x="908" y="1500"/>
	<anchor name="topright" x="1561" y="1500"/>
</glyph>
<glyph name="V" format="2">
	<unicode hex="0056"/>
	<advance width="1159"/>
	<outline>
		<contour>
			<point x="1.9720458984" y="1393.7177734375" type="line"/>
			<point x="18.8924560547" y="1500" type="line"/>
			<point x="614.1165771484" y="1500" type="line"/>
			<point x="597.1961669922" y="1393.7177734375" type="line"/>
			<point x="364.2825927734" y="1364.7177734375" type="line"/>
			<point x="394.5717163086" y="789.1881713867" type="line"/>
			<point x="438" y="390" type="line"/>
			<point x="442" y="261" type="line"/>
			<point x="460" y="261" type="line"/>
			<point x="527" y="390" type="line"/>
			<point x="761.8731689453" y="833.5440673828" type="line"/>
			<point x="1076.0905151367" y="1357.7177734375" type="line"/>
			<point x="870.776550293" y="1393.7177734375" type="line"/>
			<point x="883.5368041992" y="1500" type="line"/>
			<point x="1384.3005371094" y="1500" type="line"/>
			<point x="1371.8735961914" y="1393.7177734375" type="line"/>
			<point x="1189.7998657227" y="1357.7177734375" type="line"/>
			<point x="839.1772460938" y="762.7512817383" type="line"/>
			<point x="396.7814941406" y="-7" type="line"/>
			<point x="289.9989013672" y="-7" type="line"/>
			<point x="243.4019775391" y="714.5609741211" type="line"/>
			<point x="213.0452880859" y="1362.7177734375" type="line"/>
		</contour>
	</outline>
	<anchor name="bottom" x="373" y="0"/>
	<anchor name="top" x="743" y="1500"/>
</glyph>
<glyph name="W" format="2">
	<unicode hex="0057"/>
	<advance width="1703"/>
	<outline>
		<contour>
			<point x="-35.9918212891" y="1393.7177734375" type="line"/>
			<point x="-20.5113525391" y="1500" type="line"/>
			<point x="635.904296875" y="1500" type="line"/>
			<point x="621.423828125" y="1393.7177734375" type="line"/>
			<point x="375.4267578125" y="1364.7177734375" type="line"/>
			<point x="365.5435180664" y="783.021484375" type="line"/>
			<point x="353.6182861328" y="388.0435180664" type="line"/>
			<point x="346.3833007812" y="254.1686401367" type="line"/>
			<point x="361.3435058594" y="254.1686401367" type="line"/>
			<point x="439.8174438477" y="396.3884277344" type="line"/>
			<point x="521.9368286133" y="572.2412109375" type="line"/>
			<point x="835.3770751953" y="1098.9635620117" type="line"/>
			<point x="833.452331543" y="1369.8779296875" type="line"/>
			<point x="600.4552612305" y="1390.8779296875" type="line"/>
			<point x="615.3756713867" y="1500" type="line"/>
			<point x="1254.3143310547" y="1500" type="line"/>
			<point x="1239.3939208984" y="1394.7177734375" type="line"/>
			<point x="982.3968505859" y="1366.7177734375" type="line"/>
			<point x="986.4821166992" y="756.6627197266" type="line"/>
			<point x="984.3180541992" y="387.2302246094" type="line"/>
			<point x="979.0438842773" y="254.688659668" type="line"/>
			<point x="988.0040893555" y="254.688659668" type="line"/>
			<point x="1063.6506958008" y="396.0570678711" type="line"/>
			<point x="1326.2492675781" y="821.1054077148" type="line"/>
			<point x="1608.9583740234" y="1358.7177734375" type="line"/>
			<point x="1369.9613037109" y="1393.7177734375" type="line"/>
			<point x="1380.7215576172" y="1500" type="line"/>
			<point x="1961.5462646484" y="1500" type="line"/>
			<point x="1949.7860107422" y="1393.1977539062" type="line"/>
			<point x="1745.7889404297" y="1363.1977539062" type="line"/>
			<point x="1417.1213378906" y="769.0837402344" type="line"/>
			<point x="959.6022949219" y="-5" type="line"/>
			<point x="835.5880737305" y="-5" type="line"/>
			<point x="836.7352294922" y="798.4891967773" type="line"/>
			<point x="841.9559936523" y="934.0708007812" type="line"/>
			<point x="835.9559936523" y="934.0708007812" type="line"/>
			<point x="602.2653198242" y="570.4130859375" type="line"/>
			<point x="342.3062133789" y="-5" type="line"/>
			<point x="197.1365356445" y="-5" type="line"/>
			<point x="216.9063110352" y="746.7426757812" type="line"/>
			<point x="214.0052490234" y="1363.7177734375" type="line"/>
		</contour>
	</outline>
	<anchor name="bottom" x="691" y="0"/>
	<anchor name="top" x="981" y="1500"/>
</glyph>
<glyph name="X" format="2">
	<unicode hex="0058"/>
	<advance width="1409"/>
	<outline>
		<contour>
			<point x="-25.4801635742" y="0" type="line"/>
			<point x="-12.799987793" y="100.001953125" type="line"/>
			<point x="173.1970825195" y="125.001953125" type="line"/>
			<point x="691.0214233398" y="747.8792724609" type="line"/>
			<point x="414.2834472656" y="1364.7177734375" type="line"/>
			<point x="200.2863769531" y="1393.7177734375" type="line"/>
			<point x="214.0466308594" y="1500" type="line"/>
			<point x="831.0373535156" y="1500" type="line"/>
			<point x="817.2770996094" y="1392.7177734375" type="line"/>
			<point x="595.2800292969" y="1367.7177734375" type="line"/>
			<point x="767.5971679688" y="1029.1135864258" type="line"/>
			<point x="810.2552490234" y="941.5780029297" type="line"/>
			<point x="814.2552490234" y="941.5780029297" type="line"/>
			<point x="897.5615234375" y="1039.3403320312" type="line"/>
			<point x="1187.6854858398" y="1362.7177734375" type="line"/>
			<point x="944.6884155273" y="1392.7177734375" type="line"/>
			<point x="958.4486694336" y="1500" type="line"/>
			<point x="1502.2808227539" y="1500" type="line"/>
			<point x="1487.5205688477" y="1392.7177734375" type="line"/>
			<point x="1299.5234985352" y="1365.7177734375" type="line"/>
			<point x="829.2283935547" y="828.5740966797" type="line"/>
			<point x="1137.5073242188" y="125.001953125" type="line"/>
			<point x="1358.5043945312" y="100.001953125" type="line"/>
			<point x="1343.82421875" y="0" type="line"/>
			<point x="694.353515625" y="0" type="line"/>
			<point x="708.0336914062" y="100.001953125" type="line"/>
			<point x="954.0307617188" y="125.001953125" type="line"/>
			<point x="748.2157592773" y="546.2197875977" type="line"/>
			<point x="706.0776977539" y="636.5676879883" type="line"/>
			<point x="702.0776977539" y="636.5676879883" type="line"/>
			<point x="616.3735351562" y="539.7222900391" type="line"/>
			<point x="265.1025390625" y="130.001953125" type="line"/>
			<point x="520.099609375" y="100.001953125" type="line"/>
			<point x="507.4194335938" y="0" type="line"/>
		</contour>
	</outline>
	<anchor name="bottom" x="453" y="0"/>
	<anchor name="top" x="723" y="1500"/>
	<anchor name="cy_descender" x="1125" y="100"/>
	<anchor name="center" x="591" y="791"/>
</glyph>
<glyph name="Y" format="2">
	<unicode hex="0059"/>
	<advance width="1183"/>
	<outline>
		<contour>
			<point x="178.7877197266" y="0" type="line"/>
			<point x="190.4678955078" y="99.001953125" type="line"/>
			<point x="401.4649658203" y="131.001953125" type="line"/>
			<point x="509.1182861328" y="633.6674804688" type="line"/>
			<point x="351.4791870117" y="990.7098388672" type="line"/>
			<point x="208.5009155273" y="1360.7177734375" type="line"/>
			<point x="20.5038452148" y="1394.7177734375" type="line"/>
			<point x="33.2640991211" y="1500" type="line"/>
			<point x="563.5953979492" y="1500" type="line"/>
			<point x="550.835144043" y="1394.7177734375" type="line"/>
			<point x="356.8380737305" y="1370.7177734375" type="line"/>
			<point x="504.2247924805" y="1055.0488891602" type="line"/>
			<point x="609" y="783" type="line"/>
			<point x="619" y="783" type="line"/>
			<point x="824" y="1077" type="line"/>
			<point x="1116.7322998047" y="1362.7177734375" type="line"/>
			<point x="901.7352294922" y="1394.7177734375" type="line"/>
			<point x="914.4954833984" y="1500" type="line"/>
			<point x="1423.8165893555" y="1500" type="line"/>
			<point x="1410.0563354492" y="1394.7177734375" type="line"/>
			<point x="1219.0592651367" y="1360.7177734375" type="line"/>
			<point x="903" y="1013" type="line"/>
			<point x="670.3980102539" y="660.1885375977" type="line"/>
			<point x="567.4219970703" y="128.001953125" type="line"/>
			<point x="766.4190673828" y="99.001953125" type="line"/>
			<point x="757.7388916016" y="0" type="line"/>
		</contour>
	</outline>
	<anchor name="bottom" x="443" y="0"/>
	<anchor name="top" x="731" y="1500"/>
	<anchor name="tonos" x="-13" y="1500"/>
	<anchor name="center" x="553" y="579"/>
</glyph>
<glyph name="Z" format="2">
	<unicode hex="005A"/>
	<advance width="824"/>
	<outline>
		<contour>
			<point x="-154.7321166992" y="0" type="line"/>
			<point x="-177.3986206055" y="77.9984130859" type="line"/>
			<point x="383.5269165039" y="805.2178344727" type="line"/>
			<point x="806.9693603516" y="1389.0022583008" type="line"/>
			<point x="799.9693603516" y="1400.0022583008" type="line"/>
			<point x="291.5780639648" y="1400.0022583008" type="line"/>
			<point x="181.2619018555" y="1147.2460327148" type="line"/>
			<point x="81.2592163086" y="1147.2460327148" type="line"/>
			<point x="158.9085693359" y="1500" type="line"/>
			<point x="1010.1907348633" y="1500" type="line"/>
			<point x="1001.8575439453" y="1423.6682128906" type="line"/>
			<point x="499.8099975586" y="731.6987304688" type="line"/>
			<point x="30.7254638672" y="116.6646118164" type="line"/>
			<point x="34.7254638672" y="101.6646118164" type="line"/>
			<point x="566.8661499023" y="101.6646118164" type="line"/>
			<point x="719.7524414062" y="378.5272827148" type="line"/>
			<point x="817.3548583984" y="378.5272827148" type="line"/>
			<point x="697.8025512695" y="0" type="line"/>
		</contour>
	</outline>
	<anchor name="bottom" x="383" y="0"/>
	<anchor name="top" x="643" y="1500"/>
	<anchor name="_liga" x="0" y="0"/>
</glyph>
<glyph name="b" format="2">
	<unicode hex="0062"/>
	<advance width="1067"/>
	<outline>
		<contour>
			<point x="12.7094726562" y="157" type="qcurve" smooth="yes"/>
			<point x="98.3376464844" y="561" type="line"/>
			<point x="278.6677246094" y="1405.9940185547" type="line"/>
			<point x="191.8774414062" y="1449.9940185547" type="line"/>
			<point x="209.9685058594" y="1521.0853271484" type="line"/>
			<point x="385.5925292969" y="1571.0853271484" type="line"/>
			<point x="457.0161132812" y="1503.2515869141" type="line"/>
			<point x="249.3898925781" y="535" type="line"/>
			<point x="171.76171875" y="155" type="line" smooth="yes"/>
			<point x="163.5847167969" y="114.859375"/>
			<point x="200.6940917969" y="107.2763671875"/>
			<point x="198.4265136719" y="108.2763671875" type="qcurve" smooth="yes"/>
			<point x="394.4326171875" y="113.2763671875"/>
			<point x="782.8117675781" y="413.4068603516"/>
			<point x="784.6657714844" y="679.1647949219" type="qcurve" smooth="yes"/>
			<point x="784.6657714844" y="797.3747558594"/>
			<point x="708.5012207031" y="889.9118652344"/>
			<point x="633.4990234375" y="888.9118652344" type="qcurve" smooth="yes"/>
			<point x="560.5327148438" y="886.9118652344"/>
			<point x="232.2475585938" y="665.3962402344"/>
			<point x="190.8515625" y="582.2790527344" type="qcurve"/>
			<point x="217.38671875" y="748.6704101562" type="line"/>
			<point x="306.62890625" y="817.4484863281"/>
			<point x="612.2036132812" y="1025.1647949219"/>
			<point x="701.2644042969" y="1025.1647949219" type="qcurve" smooth="yes"/>
			<point x="819.7990722656" y="1025.1647949219"/>
			<point x="966.9655761719" y="856.1647949219"/>
			<point x="966.0385742188" y="734.1647949219" type="qcurve" smooth="yes"/>
			<point x="964.1845703125" y="392.4068603516"/>
			<point x="504.9758300781" y="-13"/>
			<point x="148.2897949219" y="-13" type="qcurve" smooth="yes"/>
			<point x="78.3354492188" y="-13"/>
			<point x="-4.2905273438" y="77"/>
		</contour>
	</outline>
	<anchor name="bottom" x="571" y="0"/>
	<anchor name="top" x="571" y="1533"/>
</glyph>
<glyph name="c" format="2">
	<unicode hex="0063"/>
	<advance width="905"/>
	<outline>
		<contour>
			<point x="14.5561523438" y="506.9476318359" type="qcurve" smooth="yes"/>
			<point x="66.9887695312" y="743.6781005859"/>
			<point x="381.0463867188" y="1023.8952636719"/>
			<point x="556.9591064453" y="1023.8952636719" type="qcurve" smooth="yes"/>
			<point x="670.9049072266" y="1023.8952636719"/>
			<point x="812.1680908203" y="930.8952636719"/>
			<point x="820.1680908203" y="842.8952636719" type="qcurve" smooth="yes"/>
			<point x="826.1680908203" y="765.8952636719"/>
			<point x="732.1163330078" y="681.8952636719"/>
			<point x="647.2313232422" y="668.8952636719" type="qcurve"/>
			<point x="601.7440185547" y="689.8952636719" type="line"/>
			<point x="606.7440185547" y="881.8952636719" type="line" smooth="yes"/>
			<point x="607.7440185547" y="911.8952636719"/>
			<point x="558.0177001953" y="910.9909667969"/>
			<point x="516.1488037109" y="910.9909667969" type="qcurve" smooth="yes"/>
			<point x="386.7506103516" y="910.9909667969"/>
			<point x="219.1435546875" y="685.7862548828"/>
			<point x="181.7109375" y="500.9476318359" type="qcurve" smooth="yes"/>
			<point x="140.3864746094" y="296.3253173828"/>
			<point x="207.0378417969" y="97.7646484375"/>
			<point x="358.443359375" y="97.7646484375" type="qcurve" smooth="yes"/>
			<point x="459.9755859375" y="97.7646484375"/>
			<point x="684.453125" y="214.1142578125"/>
			<point x="726.6076660156" y="282.8828125" type="qcurve"/>
			<point x="776.6264648438" y="230.9306640625" type="line"/>
			<point x="779.6264648438" y="191.140625" type="line"/>
			<point x="737.9624023438" y="110.2849121094"/>
			<point x="419.9313964844" y="-17"/>
			<point x="284.9506835938" y="-17" type="qcurve" smooth="yes"/>
			<point x="86.060546875" y="-17"/>
			<point x="-36.8223876953" y="274.3793945312"/>
		</contour>
	</outline>
	<anchor name="bottom" x="343" y="0"/>
	<anchor name="top" x="600" y="1000"/>
</glyph>
<glyph name="d" format="2">
	<unicode hex="0064"/>
	<advance width="1094"/>
	<outline>
		<contour>
			<point x="6.5393307012" y="311.5407714844" type="qcurve" smooth="yes"/>
			<point x="9.3427038999" y="568.1364746094"/>
			<point x="424.7214880796" y="975.5283203125"/>
			<point x="645.0464392515" y="989.9759521484" type="qcurve" smooth="yes"/>
			<point x="768.7405310484" y="989.9759521484" type="line"/>
			<point x="851.0118323179" y="1403.891418457" type="line"/>
			<point x="757.6078406187" y="1449.7778320312" type="line"/>
			<point x="775.6989050718" y="1525.869140625" type="line"/>
			<point x="955.2203894468" y="1576.869140625" type="line"/>
			<point x="1023.2208777281" y="1509.9841308594" type="line"/>
			<point x="815.9664831968" y="470" type="line"/>
			<point x="763.5801916929" y="127.4323120117" type="line"/>
			<point x="927.7567663999" y="127.4323120117" type="line"/>
			<point x="922.7567663999" y="44" type="line"/>
			<point x="684.2094031187" y="-16" type="line"/>
			<point x="606.5553503843" y="93.0517578125" type="line"/>
			<point x="623.8673621031" y="184.1865234375" type="line"/>
			<point x="620.9086218687" y="106.1630859375"/>
			<point x="326.9962683531" y="-10"/>
			<point x="220.8539343687" y="-10" type="qcurve" smooth="yes"/>
			<point x="118.7328406187" y="-10"/>
			<point x="5.6123287481" y="145.3244628906"/>
		</contour>
		<contour>
			<point x="175.1172115606" y="315.5407714844" type="qcurve" smooth="yes"/>
			<point x="174.2125769468" y="215.826171875"/>
			<point x="190.4198523374" y="92.8115234375"/>
			<point x="274.0236121031" y="92.8115234375" type="qcurve" smooth="yes"/>
			<point x="384.5800085874" y="92.8115234375"/>
			<point x="616.3800574156" y="227"/>
			<point x="651.6066199156" y="403" type="qcurve" smooth="yes"/>
			<point x="733.912650189" y="797.3743896484" type="line"/>
			<point x="717.912650189" y="827.3743896484"/>
			<point x="660.2468787046" y="874.3743896484"/>
			<point x="639.4368201109" y="874.3743896484" type="qcurve" smooth="yes"/>
			<point x="428.5455847593" y="874.3743896484"/>
			<point x="176.9712154669" y="522.1364746094"/>
		</contour>
	</outline>
	<anchor name="bottom" x="604" y="0"/>
	<anchor name="center" x="876" y="1202"/>
	<anchor name="top" x="704" y="1534"/>
	<anchor name="topright" x="1076" y="1000"/>
	<anchor name="liga" x="1067" y="0"/>
</glyph>
<glyph name="f" format="2">
	<unicode hex="0066"/>
	<advance width="335"/>
	<outline>
		<contour>
			<point x="-186.7924194336" y="-430.134765625" type="line" smooth="yes"/>
			<point x="-178.3378295898" y="-347.4069824219" type="line"/>
			<point x="-148.7457885742" y="-347.5205688477" type="line" smooth="yes"/>
			<point x="-68.7965698242" y="-346.6489868164"/>
			<point x="-135.8994140625" y="-206.3472290039"/>
			<point x="-83.2182617188" y="85.8475952148" type="qcurve" smooth="yes"/>
			<point x="67.8550415039" y="911.9260253906" type="line"/>
			<point x="77.5393066406" y="954.2043457031" type="line"/>
			<point x="127.5295410156" y="1218.2482910156" type="line" smooth="yes"/>
			<point x="160.6416015625" y="1393.5157470703"/>
			<point x="267.5042724609" y="1545.2482910156"/>
			<point x="362.6181030273" y="1545.2482910156" type="qcurve" smooth="yes"/>
			<point x="428.9895629883" y="1545.2482910156"/>
			<point x="499.4974975586" y="1474.2482910156"/>
			<point x="499.4974975586" y="1427.2482910156" type="qcurve" smooth="yes"/>
			<point x="499.4974975586" y="1396.2482910156"/>
			<point x="460.8434448242" y="1358.2482910156"/>
			<point x="440.8434448242" y="1358.2482910156" type="qcurve" smooth="yes"/>
			<point x="427.8434448242" y="1358.2482910156"/>
			<point x="416.8434448242" y="1372.2482910156"/>
			<point x="416.8434448242" y="1386.2482910156" type="qcurve" smooth="yes"/>
			<point x="416.8434448242" y="1379.9250488281"/>
			<point x="394.3391723633" y="1422.8557128906"/>
			<point x="368.8645629883" y="1422.8557128906" type="qcurve" smooth="yes"/>
			<point x="314.3954467773" y="1422.8557128906"/>
			<point x="282.7236328125" y="1312.2467041016"/>
			<point x="269.7091064453" y="1220.1296386719" type="qcurve" smooth="yes"/>
			<point x="232.7175292969" y="948.7160644531" type="line"/>
			<point x="234.0893554688" y="923.6467285156" type="line"/>
			<point x="99.5213623047" y="214" type="line" smooth="yes"/>
			<point x="17.3549804688" y="-222.1889038086"/>
			<point x="65.1900024414" y="-461.134765625"/>
			<point x="-54.8361206055" y="-461.134765625" type="qcurve"/>
		</contour>
		<contour>
			<point x="-27.2330932617" y="884.4152832031" type="line"/>
			<point x="-35.4655151367" y="947.9719238281" type="line"/>
			<point x="72.2462158203" y="997.7854003906" type="line"/>
			<point x="354.4069213867" y="1005.2268066406" type="line"/>
			<point x="341.0582885742" y="883.1828613281" type="line"/>
			<point x="163.3238525391" y="896.5080566406" type="line"/>
			<point x="86.4771728516" y="874.1083984375" type="line"/>
		</contour>
	</outline>
	<anchor name="bottom" x="217" y="0"/>
	<anchor name="top" x="554" y="1536"/>
</glyph>
<glyph name="g" format="2">
	<unicode hex="0067"/>
	<advance width="1065"/>
	<outline>
		<contour>
			<point x="35.4593505859" y="286.2703857422" type="qcurve" smooth="yes"/>
			<point x="37.3133544922" y="567.9742431641"/>
			<point x="319.4342041016" y="1000.7596435547"/>
			<point x="534.2647705078" y="1000.7596435547" type="qcurve" smooth="yes"/>
			<point x="624.7247314453" y="1000.7596435547"/>
			<point x="737.4986572266" y="964.7596435547"/>
			<point x="761.5936279297" y="947.7596435547" type="qcurve"/>
			<point x="794.4527587891" y="1021.7596435547" type="line"/>
			<point x="859.5811767578" y="1021.7596435547" type="line"/>
			<point x="895.5687255859" y="784.2843017578" type="line"/>
			<point x="861.7198486328" y="632" type="line" smooth="yes"/>
			<point x="812.72265625" y="417.9431152344"/>
			<point x="765.4749755859" y="246.9091796875"/>
			<point x="727.5406494141" y="48.84765625" type="qcurve" smooth="yes"/>
			<point x="678.1724853516" y="-246.3942871094"/>
			<point x="432.0198974609" y="-480.1806640625"/>
			<point x="262.2799072266" y="-480.1806640625" type="qcurve"/>
			<point x="123.0821533203" y="-440.1806640625" type="line"/>
			<point x="123.9458007812" y="-363.9530029297" type="line"/>
			<point x="297.2550048828" y="-354.4528808594" type="line" smooth="yes"/>
			<point x="431.1825561523" y="-347.1118774414"/>
			<point x="518.3945922852" y="-152.9763793945"/>
			<point x="576.4488525391" y="68.9161987305" type="qcurve" smooth="yes"/>
			<point x="607.9161376953" y="190.0729980469" type="line"/>
			<point x="592.8160400391" y="101.0729980469"/>
			<point x="398.6444091797" y="-13"/>
			<point x="253.9813232422" y="-13" type="qcurve" smooth="yes"/>
			<point x="162.0343017578" y="-13"/>
			<point x="34.5323486328" y="129.2352294922"/>
		</contour>
		<contour>
			<point x="198.5628662109" y="264.2703857422" type="qcurve" smooth="yes"/>
			<point x="197.6358642578" y="165.1612548828"/>
			<point x="283.8690185547" y="99.2482910156"/>
			<point x="354.2708740234" y="99.2482910156" type="qcurve" smooth="yes"/>
			<point x="462.7435302734" y="99.2482910156"/>
			<point x="629.6461181641" y="287.4852294922"/>
			<point x="674.0247802734" y="501.9895019531" type="qcurve" smooth="yes"/>
			<point x="738.3459472656" y="801.3905029297" type="line"/>
			<point x="734.1999511719" y="831.3905029297"/>
			<point x="660.9276123047" y="884.3905029297"/>
			<point x="527.1175537109" y="884.3905029297" type="qcurve" smooth="yes"/>
			<point x="394.568359375" y="884.3905029297"/>
			<point x="199.4898681641" y="486.9365234375"/>
		</contour>
	</outline>
	<anchor name="bottom" x="324" y="-416"/>
	<anchor name="top" x="603" y="1000"/>
</glyph>
<glyph name="h" format="2">
	<unicode hex="0068"/>
	<advance width="1250"/>
	<outline>
		<contour>
			<point x="83.2810058594" y="-28.4360351562" type="line"/>
			<point x="29.5373535156" y="67.2434082031" type="line"/>
			<point x="165.2297363281" y="562.0637207031" type="line"/>
			<point x="313.6478881836" y="1405.7312011719" type="line"/>
			<point x="187.9233398438" y="1450.9130859375" type="line"/>
			<point x="206.0144042969" y="1522.0043945312" type="line"/>
			<point x="416.8564453125" y="1582.1711425781" type="line"/>
			<point x="488.7543945312" y="1514.3374023438" type="line"/>
			<point x="325.6025390625" y="588.4743652344" type="line"/>
			<point x="219.4487304688" y="111.4743652344" type="line"/>
			<point x="298.9743652344" y="0" type="line"/>
		</contour>
		<contour>
			<point x="767.2856445312" y="-27.9487304688" type="line"/>
			<point x="668.7341308594" y="110.4235839844" type="line"/>
			<point x="797.0224609375" y="711.7629394531" type="line" smooth="yes"/>
			<point x="809.967956543" y="769.2265014648"/>
			<point x="756.3350830078" y="880.6027832031"/>
			<point x="706.5786743164" y="880.6027832031" type="qcurve" smooth="yes"/>
			<point x="625.9174804688" y="880.6027832031"/>
			<point x="328.9196777344" y="699.1087646484"/>
			<point x="283.1271972656" y="593.8820800781" type="qcurve"/>
			<point x="274.1218261719" y="698.1115722656" type="line"/>
			<point x="397.6860961914" y="829.0967407227"/>
			<point x="742.8274536133" y="1019.1115722656"/>
			<point x="853.387512207" y="1019.1115722656" type="qcurve" smooth="yes"/>
			<point x="933.2322998047" y="1019.1115722656"/>
			<point x="986.2716064453" y="829.8367919922"/>
			<point x="953.767578125" y="672.1115722656" type="qcurve" smooth="yes"/>
			<point x="839.0718994141" y="117.0004882812" type="line"/>
			<point x="983.0893554688" y="138.0004882812" type="line"/>
			<point x="983.0893554688" y="50" type="line"/>
		</contour>
	</outline>
	<anchor name="bottom" x="420" y="0"/>
	<anchor name="center" x="347" y="1202"/>
	<anchor name="top" x="424" y="1534"/>
</glyph>
<glyph name="m" format="2">
	<unicode hex="006D"/>
	<advance width="1849"/>
	<outline>
		<contour>
			<point x="71.9458007812" y="-30.3334960938" type="line"/>
			<point x="13.2021484375" y="65.8203125" type="line"/>
			<point x="148.9970703125" y="586" type="line"/>
			<point x="189.4806518555" y="848.2787475586" type="line"/>
			<point x="52.9113769531" y="818.2787475586" type="line"/>
			<point x="46.7750244141" y="906.1656494141" type="line"/>
			<point x="241.6424560547" y="1007.1656494141" type="line"/>
			<point x="333.2452392578" y="1007.1656494141" type="line"/>
			<point x="326.7186889648" y="718.3856201172" type="line"/>
			<point x="310.9467773438" y="588" type="line"/>
			<point x="195.9467773438" y="111" type="line"/>
			<point x="275.9467773438" y="0" type="line"/>
		</contour>
		<contour>
			<point x="684.5679321289" y="-19.5256347656" type="line"/>
			<point x="630.5679321289" y="82.4743652344" type="line"/>
			<point x="787.7640991211" y="737.6400146484" type="line" smooth="yes"/>
			<point x="804.4537353516" y="800.1274414062"/>
			<point x="764.122253418" y="878.7965087891"/>
			<point x="700.9542236328" y="878.7965087891" type="qcurve" smooth="yes"/>
			<point x="624.6091308594" y="878.7965087891"/>
			<point x="302.2155761719" y="694.196105957"/>
			<point x="253.5389404297" y="606.8424072266" type="qcurve"/>
			<point x="247.4451904297" y="707.6998291016" type="line"/>
			<point x="373.5350341797" y="842.2779541016"/>
			<point x="740.7183227539" y="1019.6400146484"/>
			<point x="856.8244628906" y="1019.6400146484" type="qcurve" smooth="yes"/>
			<point x="927.3171386719" y="1019.6400146484"/>
			<point x="979.1820068359" y="854.5680541992"/>
			<point x="933.1884155273" y="672.6400146484" type="qcurve" smooth="yes"/>
			<point x="814.4151000977" y="129.6157226562" type="line"/>
			<point x="880.9024047852" y="22.2309570312" type="line"/>
		</contour>
		<contour>
			<point x="1362.766784668" y="-30.1667480469" type="line"/>
			<point x="1269.2152709961" y="107.2055664062" type="line"/>
			<point x="1401.6167602539" y="714.7935791016" type="line" smooth="yes"/>
			<point x="1412.3508911133" y="764.2986450195"/>
			<point x="1351.1433105469" y="880.6568603516"/>
			<point x="1295.664855957" y="880.6568603516" type="qcurve" smooth="yes"/>
			<point x="1197.271484375" y="880.6568603516"/>
			<point x="918.4208984375" y="683.1587524414"/>
			<point x="868.0394897461" y="595.4617919922" type="qcurve"/>
			<point x="856.7135620117" y="703.1656494141" type="line"/>
			<point x="970.4963378906" y="829.1209716797"/>
			<point x="1311.6091918945" y="1019.1656494141"/>
			<point x="1443.7874755859" y="1019.1656494141" type="qcurve" smooth="yes"/>
			<point x="1521.8273925781" y="1019.1656494141"/>
			<point x="1591.9221191406" y="860.8462524414"/>
			<point x="1553.6690063477" y="672.1656494141" type="qcurve" smooth="yes"/>
			<point x="1433.5017700195" y="117.0004882812" type="line"/>
			<point x="1580.8397827148" y="138.0004882812" type="line"/>
			<point x="1580.8397827148" y="50" type="line"/>
		</contour>
	</outline>
	<anchor name="bottom" x="958" y="0"/>
	<anchor name="top" x="958" y="1000"/>
	<anchor name="cy_descender" x="1572" y="134"/>
</glyph>
<glyph name="n" format="2">
	<unicode hex="006E"/>
	<advance width="1160"/>
	<outline>
		<contour>
			<point x="80.8487548828" y="-18" type="line"/>
			<point x="28.8487548828" y="61.2966308594" type="line"/>
			<point x="147.9970703125" y="592" type="line"/>
			<point x="193.3606567383" y="850.2246704102" type="line"/>
			<point x="52.9113769531" y="818.2246704102" type="line"/>
			<point x="46.7750244141" y="906.1115722656" type="line"/>
			<point x="238.3731689453" y="1000.2598876953" type="line"/>
			<point x="331.2452392578" y="997.2598876953" type="line"/>
			<point x="318.5662841797" y="691.1115722656" type="line"/>
			<point x="324.5662841797" y="663.1115722656" type="line"/>
			<point x="204.8497314453" y="80.5191040039" type="line"/>
			<point x="245.4429931641" y="-4.9258422852" type="line"/>
		</contour>
		<contour>
			<point x="701.3607788086" y="-16.1631469727" type="line"/>
			<point x="665.7675170898" y="72" type="line"/>
			<point x="784.4147338867" y="679.9973144531" type="line" smooth="yes"/>
			<point x="804.2623291016" y="780.3045654297"/>
			<point x="746.4400634766" y="874.6596679688"/>
			<point x="653.2264404297" y="874.6596679688" type="qcurve" smooth="yes"/>
			<point x="546.4345703125" y="874.6596679688"/>
			<point x="268.350769043" y="655.0045776367"/>
			<point x="261.2580566406" y="554.8187255859" type="qcurve"/>
			<point x="249.5059814453" y="662.0518798828" type="line"/>
			<point x="253.0903930664" y="769.126159668"/>
			<point x="605.1785888672" y="1019.1115722656"/>
			<point x="725.7518310547" y="1019.1115722656" type="qcurve" smooth="yes"/>
			<point x="852.2936401367" y="1019.1115722656"/>
			<point x="984.2144775391" y="863.1928710938"/>
			<point x="968.3341674805" y="787.3762817383" type="qcurve" smooth="yes"/>
			<point x="826.462890625" y="117.0004882812" type="line"/>
			<point x="967.9121704102" y="138.0004882812" type="line"/>
			<point x="970.9121704102" y="50" type="line"/>
		</contour>
	</outline>
	<anchor name="bottom" x="522" y="0"/>
	<anchor name="top" x="602" y="1000"/>
	<anchor name="liga" x="1173" y="0"/>
</glyph>
<glyph name="o" format="2">
	<unicode hex="006F"/>
	<advance width="1067"/>
	<outline>
		<contour>
			<point x="15.4587748664" y="555.0017089844" type="qcurve" smooth="yes"/>
			<point x="54.2858056725" y="772.8092041016"/>
			<point x="379.1645898522" y="1037.0034179688"/>
			<point x="571.5354394616" y="1022.0034179688" type="qcurve" smooth="yes"/>
			<point x="804.9126367272" y="1004.1248779297"/>
			<point x="973.42154786" y="704.6240234375"/>
			<point x="934.6675151008" y="476.0017089844" type="qcurve" smooth="yes"/>
			<point x="896.482094735" y="256.5632324219"/>
			<point x="564.9778222741" y="-31"/>
			<point x="368.5813378991" y="-16" type="qcurve" smooth="yes"/>
			<point x="138.9756250085" y="1.4041748047"/>
			<point x="-32.7266454994" y="302.4819335938"/>
		</contour>
		<contour>
			<point x="196.882847132" y="550.0017089844" type="qcurve" smooth="yes"/>
			<point x="160.1306251908" y="365.5834358108"/>
			<point x="241.8383525031" y="97.8843994141"/>
			<point x="392.7346537726" y="83.486328125" type="qcurve" smooth="yes"/>
			<point x="559.4513896125" y="70.486328125"/>
			<point x="731.5675963723" y="325.1098938565"/>
			<point x="754.8716166633" y="477.0747070312" type="qcurve" smooth="yes"/>
			<point x="783.9478699791" y="652.3773123672"/>
			<point x="709.5621684211" y="901.5639648438"/>
			<point x="552.9479106086" y="915.5639648438" type="qcurve" smooth="yes"/>
			<point x="411.6670878547" y="928.5639648438"/>
			<point x="231.9746827298" y="728.2263534631"/>
		</contour>
	</outline>
	<anchor name="bottom" x="358" y="0"/>
	<anchor name="center" x="461" y="500"/>
	<anchor name="ogonek" x="514" y="0"/>
	<anchor name="top" x="584" y="1000"/>
	<anchor name="topright" x="663" y="1000"/>
	<anchor name="GRKtop" x="584" y="1000"/>
	<anchor name="yu_dash" x="83" y="498"/>
</glyph>
<glyph name="q" format="2">
	<unicode hex="0071"/>
	<advance width="1181"/>
	<outline>
		<contour>
			<point x="40.9605102539" y="281.5407714844" type="qcurve" smooth="yes"/>
			<point x="43.7415161133" y="548.2987060547"/>
			<point x="354.8518676758" y="991.0300292969"/>
			<point x="561.440246582" y="991.0300292969" type="qcurve" smooth="yes"/>
			<point x="611.3892211914" y="991.0300292969"/>
			<point x="798.2871704102" y="971.0300292969"/>
			<point x="826.0901489258" y="962.0300292969" type="qcurve"/>
			<point x="864.5913696289" y="1008.0300292969" type="line"/>
			<point x="926.399230957" y="1008.0300292969" type="line"/>
			<point x="940.2842407227" y="761.0932617188" type="line"/>
			<point x="867.4185180664" y="447" type="line"/>
			<point x="727.4384155273" y="-310.2390136719" type="line"/>
			<point x="835.5469360352" y="-366.9663085938" type="line"/>
			<point x="808.209777832" y="-444.0576171875" type="line"/>
			<point x="678.8037719727" y="-472.4936523438" type="line"/>
			<point x="557.4314575195" y="-372.6599121094" type="line"/>
			<point x="677.4817504883" y="194" type="line"/>
			<point x="669.4817504883" y="195" type="line"/>
			<point x="637.0747680664" y="113.0729980469"/>
			<point x="399.6914672852" y="-11"/>
			<point x="246.3941040039" y="-11" type="qcurve" smooth="yes"/>
			<point x="160.6372680664" y="-11"/>
			<point x="40.0335083008" y="130.3812255859"/>
		</contour>
		<contour>
			<point x="211.4358520508" y="289.5407714844" type="qcurve" smooth="yes"/>
			<point x="210.5088500977" y="183.3380126953"/>
			<point x="251.4663696289" y="94.5556640625"/>
			<point x="274.1743774414" y="94.5556640625" type="qcurve" smooth="yes"/>
			<point x="446.8901977539" y="94.5556640625"/>
			<point x="687.0083618164" y="266.3304443359"/>
			<point x="708.6868286133" y="418" type="qcurve" smooth="yes"/>
			<point x="787.2172241211" y="802.1491699219" type="line"/>
			<point x="762.1442260742" y="830.1491699219"/>
			<point x="782.7754516602" y="878.1491699219"/>
			<point x="734.9356079102" y="878.1491699219" type="qcurve" smooth="yes"/>
			<point x="456.0505981445" y="878.1491699219"/>
			<point x="213.289855957" y="499.5789794922"/>
		</contour>
	</outline>
	<anchor name="bottom" x="594" y="0"/>
	<anchor name="top" x="594" y="1000"/>
</glyph>
<glyph name="z" format="2">
	<unicode hex="007A"/>
	<advance width="616"/>
	<outline>
		<contour>
			<point x="-152.0113525391" y="-1.3486328125" type="line"/>
			<point x="-144.0029296875" y="70.4404296875" type="line"/>
			<point x="-114.3304443359" y="137.30078125"/>
			<point x="86.4862060547" y="418.8756103516"/>
			<point x="214.3894042969" y="567.2000732422" type="qcurve" smooth="yes"/>
			<point x="324.6630249023" y="690.2000732422"/>
			<point x="430.8030395508" y="829.3127441406"/>
			<point x="433.2817382812" y="874.072265625" type="qcurve"/>
			<point x="138.1413574219" y="868.1748046875" type="line"/>
			<point x="72.94140625" y="808.1103515625" type="line"/>
			<point x="-44.1215820312" y="808.1103515625" type="line"/>
			<point x="12.7453613281" y="970.1115722656" type="line"/>
			<point x="69.7453613281" y="1007.1115722656" type="line"/>
			<point x="606.9827880859" y="1000.1115722656" type="line"/>
			<point x="635.2152099609" y="944.2287597656" type="line"/>
			<point x="620.0654907227" y="882.2287597656"/>
			<point x="421.9443359375" y="625.19140625"/>
			<point x="300.9424438477" y="488.1373291016" type="qcurve" smooth="yes"/>
			<point x="193.0343017578" y="365.8128662109"/>
			<point x="75.4425048828" y="212.3232421875"/>
			<point x="54.7319946289" y="185.0673828125" type="qcurve"/>
			<point x="413.8759765625" y="126.7785644531" type="line"/>
			<point x="490.2270507812" y="186.2917480469" type="line"/>
			<point x="578.4178466797" y="159.2493896484" type="line"/>
			<point x="494.8462524414" y="-5" type="line"/>
			<point x="443.8462524414" y="-24" type="line"/>
			<point x="-38.9654541016" y="67.0234375" type="line"/>
		</contour>
	</outline>
	<anchor name="bottom" x="443" y="0"/>
	<anchor name="top" x="463" y="1000"/>
	<anchor name="_liga" x="0" y="0"/>
</glyph>
<glyph name="idotless" format="2">
	<unicode hex="0131"/>
	<advance width="636"/>
	<outline>
		<contour>
			<point x="116.9809570312" y="-21" type="line"/>
			<point x="59.3781738281" y="107.8466796875" type="line"/>
			<point x="146.7048339844" y="531.4884033203" type="line"/>
			<point x="203.9617919922" y="840.2246704102" type="line"/>
			<point x="98.8079833984" y="820.2246704102" type="line"/>
			<point x="94.6716308594" y="913.1115722656" type="line"/>
			<point x="286.333984375" y="1012.1115722656" type="line"/>
			<point x="369.4753417969" y="1012.1115722656" type="line"/>
			<point x="393.9243164062" y="902.9826660156" type="line"/>
			<point x="347.1423339844" y="767.1115722656" type="line"/>
			<point x="283.9108886719" y="458.6292724609" type="line"/>
			<point x="217.604675293" y="133.0004882812" type="line"/>
			<point x="362.42578125" y="157.0004882812" type="line"/>
			<point x="362.42578125" y="76" type="line"/>
		</contour>
	</outline>
	<anchor name="bottom" x="180" y="0"/>
	<anchor name="top" x="320" y="1000"/>
	<anchor name="ogonek" x="180" y="0"/>
	<anchor name="yu_dash" x="239" y="498"/>
	<anchor name="liga" x="618" y="0"/>
</glyph>
